<svg width="64" height="64" viewBox="0 0 64 64" fill="none" xmlns="http://www.w3.org/2000/svg">
  <rect width="64" height="64" rx="16" fill="#0F3D35"/>
  <path d="M34.789 14C26.775 16.179 20.377 23.12 18.49 31.416C17.168 37.234 18.646 43.451 22.504 48.041C22.958 48.58 23.712 48.628 24.224 48.144L30.061 42.624C30.535 42.175 30.588 41.434 30.206 40.906C28.339 38.324 27.64 34.991 28.307 31.732C29.282 26.969 32.997 22.958 37.741 21.58C38.51 21.356 38.697 20.346 38.07 19.857L36.526 18.654L39.533 14.76C39.991 14.167 39.497 13.568 38.799 13.709L34.789 14Z" fill="#22C88A"/>
  <path d="M37.176 27.5C36.751 27.5 36.408 27.844 36.408 28.268V31.456H33.22C32.796 31.456 32.452 31.8 32.452 32.224V34.656C32.452 35.081 32.796 35.424 33.22 35.424H36.408V38.612C36.408 39.036 36.751 39.38 37.176 39.38H39.608C40.032 39.38 40.376 39.036 40.376 38.612V35.424H43.564C43.989 35.424 44.332 35.081 44.332 34.656V32.224C44.332 31.8 43.989 31.456 43.564 31.456H40.376V28.268C40.376 27.844 40.032 27.5 39.608 27.5H37.176Z" fill="white"/>
</svg>
